<?xml version="1.0" encoding="UTF-8" standalone="no"?>
<svg
   xmlns:dc="http://purl.org/dc/elements/1.1/"
   xmlns:cc="http://creativecommons.org/ns#"
   xmlns:rdf="http://www.w3.org/1999/02/22-rdf-syntax-ns#"
   xmlns:svg="http://www.w3.org/2000/svg"
   xmlns="http://www.w3.org/2000/svg"
   width="145.20053mm"
   height="115.593mm"
   viewBox="0 0 145.20053 115.593"
   version="1.1"
   id="svg8">
  <defs
     id="defs2" />
  <metadata
     id="metadata5">
    <rdf:RDF>
      <cc:Work
         rdf:about="">
        <dc:format>image/svg+xml</dc:format>
        <dc:type
           rdf:resource="http://purl.org/dc/dcmitype/StillImage" />
        <dc:title></dc:title>
      </cc:Work>
    </rdf:RDF>
  </metadata>
  <g
     id="layer1"
     transform="translate(-32.21212,-9.9016919)">
    <text
       xml:space="preserve"
       style="font-size:10.5833px;line-height:1.25;font-family:'Be Vietnam Pro';-inkscape-font-specification:'Be Vietnam Pro';word-spacing:0px;stroke-width:0.264583"
       x="33.633858"
       y="35.6847"
       id="text872"><tspan
         id="tspan870"
         x="33.633858"
         y="35.6847"
         style="stroke-width:0.264583"></tspan></text>
    <g
       id="g1160">
      <g
         id="g1082"
         transform="translate(7.4083333,205.58125)">
        <path
           id="path1064"
           style="fill:#08435e;fill-opacity:1;stroke:none;stroke-width:1.32292;stroke-linejoin:bevel;stroke-miterlimit:4;stroke-dasharray:none;stroke-opacity:1"
           d="m 63.679688,-168.32031 c -2.212215,-0.0154 -4.182518,0.12117 -5.378907,0.13281 -7.81966,0.0762 -14.091284,4.66673 -19.294922,13.67969 -9.390278,16.26445 -22.786113,60.015543 -6.707031,69.298826 11.830804,6.830533 29.301814,-8.610181 41.123047,-21.667966 l 0.04687,-0.0527 0.04492,-0.0527 c 7.996548,-9.22023 10.387962,-4.75194 23.890625,-4.75196 13.50486,2e-5 15.89339,-4.46681 23.88867,4.75196 l 0.0449,0.0527 0.0469,0.0527 c 11.82137,13.057948 29.29391,28.498656 41.125,21.667966 16.07922,-9.283364 2.68119,-53.034536 -6.70899,-69.298826 -5.20363,-9.01295 -11.47498,-13.60358 -19.29492,-13.67969 -1.19609,-0.0116 -3.16455,-0.14825 -5.37695,-0.13281 -4.71461,0.0329 -11.31484,0.92616 -17.08399,5.55664 -8.34029,1.45928 -9.37194,2.46478 -16.64062,2.46484 -7.268779,-6e-5 -8.300335,-1.00556 -16.640625,-2.46484 -5.769133,-4.63048 -12.36916,-5.52373 -17.083984,-5.55664 z" />
        <path
           id="path885"
           style="fill:#12a2e0;fill-opacity:1;stroke:none;stroke-width:1.32292;stroke-linejoin:bevel;stroke-miterlimit:4;stroke-dasharray:none;stroke-opacity:1"
           d="m 63.632326,-161.70559 c -2.055148,-0.0143 -3.885626,0.1204 -5.266862,0.13384 -4.712787,0.0459 -9.228669,2.74694 -13.630693,10.37146 -8.804045,15.24907 -19.506095,54.270817 -9.129159,60.261957 6.903175,3.985559 21.391358,-7.652051 32.912721,-20.378597 10.563183,-12.17963 18.737331,-7.03315 28.885573,-7.03316 10.148244,10e-6 18.322384,-5.14647 28.885574,7.03316 11.52136,12.726546 26.00954,24.364156 32.91272,20.378597 10.37694,-5.99114 -0.32512,-45.012887 -9.12916,-60.261957 -4.40202,-7.62452 -8.91791,-10.32559 -13.63069,-10.37146 -1.38124,-0.0134 -3.21171,-0.14818 -5.26686,-0.13384 -4.52132,0.0316 -10.13064,0.78546 -14.43995,5.14542 -10.13174,1.58638 -10.60236,2.87728 -19.331634,2.87735 -8.729273,-7e-5 -9.199896,-1.29097 -19.331635,-2.87735 -4.309309,-4.35996 -9.918621,-5.11386 -14.439945,-5.14542 z" />
        <path
           id="rect936"
           style="fill:#ffffff;fill-opacity:1;stroke:none;stroke-width:3.81161;stroke-linejoin:bevel"
           d="m 60.519855,-153.95412 c -1.136997,0 -2.05259,0.91507 -2.05259,2.05207 v 6.05493 h -6.05441 c -1.136994,0 -2.052587,0.91507 -2.052587,2.05207 v 2.50992 c 0,1.137 0.915593,2.05259 2.052587,2.05259 h 6.05441 v 6.05441 c 0,1.13699 0.915593,2.05207 2.05259,2.05207 h 2.509922 c 1.136997,0 2.052071,-0.91508 2.052071,-2.05207 v -6.05441 h 6.054413 c 1.136994,0 2.052587,-0.91559 2.052587,-2.05259 v -2.50992 c 0,-1.137 -0.915593,-2.05207 -2.052587,-2.05207 h -6.054413 v -6.05493 c 0,-1.137 -0.915074,-2.05207 -2.052071,-2.05207 z" />
        <g
           id="g1034"
           style="fill:#ffffff;fill-opacity:1;stroke:none"
           transform="translate(-1.1523497,-178.47614)">
          <g
             id="g961"
             transform="translate(-0.05976868,0.11951828)"
             style="fill:#ffffff;fill-opacity:1;stroke:none">
            <circle
               style="fill:#ffffff;fill-opacity:1;stroke:none;stroke-width:3.96875;stroke-linejoin:bevel"
               id="path942"
               cx="128.12483"
               cy="35.936096"
               r="3.9441416" />
            <circle
               style="fill:#ffffff;fill-opacity:1;stroke:none;stroke-width:3.96875;stroke-linejoin:bevel"
               id="circle949"
               cx="144.97707"
               cy="35.936096"
               r="3.9441416" />
          </g>
          <g
             id="g957"
             style="fill:#ffffff;fill-opacity:1;stroke:none">
            <circle
               style="fill:#ffffff;fill-opacity:1;stroke:none;stroke-width:3.96875;stroke-linejoin:bevel"
               id="circle951"
               cx="136.49118"
               cy="44.661015"
               r="3.9441416" />
            <circle
               style="fill:#ffffff;fill-opacity:1;stroke:none;stroke-width:3.96875;stroke-linejoin:bevel"
               id="circle953"
               cx="136.49118"
               cy="27.450214"
               r="3.9441416" />
          </g>
        </g>
        <path
           style="color:#000000;font-style:normal;font-variant:normal;font-weight:normal;font-stretch:normal;font-size:medium;line-height:normal;font-family:sans-serif;font-variant-ligatures:normal;font-variant-position:normal;font-variant-caps:normal;font-variant-numeric:normal;font-variant-alternates:normal;font-variant-east-asian:normal;font-feature-settings:normal;font-variation-settings:normal;text-indent:0;text-align:start;text-decoration:none;text-decoration-line:none;text-decoration-style:solid;text-decoration-color:#000000;letter-spacing:normal;word-spacing:normal;text-transform:none;writing-mode:lr-tb;direction:ltr;text-orientation:mixed;dominant-baseline:auto;baseline-shift:baseline;text-anchor:start;white-space:normal;shape-padding:0;shape-margin:0;inline-size:0;clip-rule:nonzero;display:inline;overflow:visible;visibility:visible;isolation:auto;mix-blend-mode:normal;color-interpolation:sRGB;color-interpolation-filters:linearRGB;solid-color:#000000;solid-opacity:1;vector-effect:none;fill:#ffffff;fill-opacity:1;fill-rule:nonzero;stroke:none;stroke-width:0.529167;stroke-linecap:butt;stroke-linejoin:bevel;stroke-miterlimit:4;stroke-dasharray:none;stroke-dashoffset:0;stroke-opacity:1;color-rendering:auto;image-rendering:auto;shape-rendering:auto;text-rendering:auto;enable-background:accumulate;stop-color:#000000"
           d="m 128.1204,-119.55305 c 0,4.22456 -3.42469,7.64924 -7.64925,7.64924 -4.22456,0 -7.64924,-3.42468 -7.64924,-7.64925 0,-4.22456 3.42468,-7.64924 7.64924,-7.64924 4.22456,0 7.64925,3.42468 7.64925,7.64925 z"
           id="circle910" />
        <circle
           style="fill:#4eb9e7;fill-opacity:1;stroke:none;stroke-width:2.72852;stroke-linejoin:bevel"
           id="circle912"
           cx="120.47115"
           cy="-119.55305"
           r="5.2588553" />
        <path
           style="color:#000000;font-style:normal;font-variant:normal;font-weight:normal;font-stretch:normal;font-size:medium;line-height:normal;font-family:sans-serif;font-variant-ligatures:normal;font-variant-position:normal;font-variant-caps:normal;font-variant-numeric:normal;font-variant-alternates:normal;font-variant-east-asian:normal;font-feature-settings:normal;font-variation-settings:normal;text-indent:0;text-align:start;text-decoration:none;text-decoration-line:none;text-decoration-style:solid;text-decoration-color:#000000;letter-spacing:normal;word-spacing:normal;text-transform:none;writing-mode:lr-tb;direction:ltr;text-orientation:mixed;dominant-baseline:auto;baseline-shift:baseline;text-anchor:start;white-space:normal;shape-padding:0;shape-margin:0;inline-size:0;clip-rule:nonzero;display:inline;overflow:visible;visibility:visible;isolation:auto;mix-blend-mode:normal;color-interpolation:sRGB;color-interpolation-filters:linearRGB;solid-color:#000000;solid-opacity:1;vector-effect:none;fill:#ffffff;fill-opacity:0.979839;fill-rule:nonzero;stroke:none;stroke-width:0.529167;stroke-linecap:butt;stroke-linejoin:bevel;stroke-miterlimit:4;stroke-dasharray:none;stroke-dashoffset:0;stroke-opacity:1;color-rendering:auto;image-rendering:auto;shape-rendering:auto;text-rendering:auto;enable-background:accumulate;stop-color:#000000"
           d="m 81.9859,-119.55305 c 0,4.22456 -3.42469,7.64924 -7.64925,7.64924 -4.22456,0 -7.64924,-3.42468 -7.64924,-7.64925 0,-4.22456 3.42468,-7.64924 7.64924,-7.64924 4.22456,0 7.64925,3.42468 7.64925,7.64925 z"
           id="path967" />
        <circle
           style="fill:#12a2e0;fill-opacity:0.741936;stroke:none;stroke-width:2.72852;stroke-linejoin:bevel"
           id="circle969"
           cx="74.336647"
           cy="-119.55305"
           r="5.2588553" />
      </g>
      <text
         xml:space="preserve"
         style="font-size:10.5833px;line-height:1.25;font-family:'Be Vietnam Pro';-inkscape-font-specification:'Be Vietnam Pro';fill:#12a2e0;fill-opacity:1;stroke:#08435e;stroke-width:0.661458;stroke-miterlimit:4;stroke-dasharray:none;stroke-opacity:1"
         x="99.176796"
         y="38.364582"
         id="text860"><tspan
           id="tspan858"
           x="99.176796"
           y="38.364582"
           style="fill:#12a2e0;fill-opacity:1;stroke:#08435e;stroke-width:0.661458;stroke-miterlimit:4;stroke-dasharray:none;stroke-opacity:1">of</tspan></text>
      <g
         aria-label="Finland"
         id="text864"
         style="font-size:16.9333px;line-height:1.5;font-family:'Be Vietnam Pro';-inkscape-font-specification:'Be Vietnam Pro';letter-spacing:1.32292px;fill:#12a2e0;fill-opacity:1;stroke:#08435e;stroke-width:0.926042;stroke-miterlimit:4;stroke-dasharray:none;stroke-opacity:1">
        <path
           d="m 72.19553,116.12069 5.737809,-11.13977 7.496766,3.86139 -0.790887,1.53548 -5.735478,-2.95419 -1.760111,3.4172 5.043005,2.59752 -0.783134,1.52043 -5.043005,-2.59753 -2.403677,4.66667 z"
           style="font-size:16.9333px;fill:#12a2e0;fill-opacity:1;stroke:#08435e;stroke-width:0.926042;stroke-miterlimit:4;stroke-dasharray:none;stroke-opacity:1"
           id="path928" />
        <path
           d="m 87.581405,111.61616 q -0.496119,-0.17152 -0.700005,-0.61826 -0.203886,-0.44674 -0.04896,-0.89485 0.160455,-0.46411 0.59119,-0.67353 0.436268,-0.22542 0.932388,-0.0539 0.49612,0.17152 0.700006,0.61826 0.225422,0.43627 0.06497,0.90038 -0.160454,0.46411 -0.612726,0.684 -0.430736,0.20942 -0.926856,0.0379 z m -4.332158,9.62855 2.932447,-8.48204 1.82444,0.63075 -2.932448,8.48205 z"
           style="font-size:16.9333px;fill:#12a2e0;fill-opacity:1;stroke:#08435e;stroke-width:0.926042;stroke-miterlimit:4;stroke-dasharray:none;stroke-opacity:1"
           id="path930" />
        <path
           d="m 88.690616,123.05546 1.753228,-8.80173 1.893203,0.37711 -0.254714,1.27874 0.09964,0.0198 q 0.162561,-0.20935 0.51104,-0.48525 0.351787,-0.29251 0.902926,-0.45899 0.567746,-0.16316 1.348278,-0.008 0.979815,0.19517 1.554782,0.77588 0.574966,0.58071 0.758248,1.39419 0.199889,0.81678 0.02126,1.71356 l -1.131328,5.67961 -1.893203,-0.37711 1.091632,-5.48032 q 0.158783,-0.79714 -0.180444,-1.43449 -0.32262,-0.63404 -1.186186,-0.80605 -0.680889,-0.13563 -1.182139,0.12711 -0.481336,0.24944 -0.789784,0.75778 -0.30514,0.49173 -0.427535,1.10619 l -0.995701,4.99872 z"
           style="font-size:16.9333px;fill:#12a2e0;fill-opacity:1;stroke:#08435e;stroke-width:0.926042;stroke-miterlimit:4;stroke-dasharray:none;stroke-opacity:1"
           id="path932" />
        <path
           d="m 99.872618,124.8316 0.816432,-12.84339 1.90977,0.11887 -0.79954,12.84445 z"
           style="font-size:16.9333px;fill:#12a2e0;fill-opacity:1;stroke:#08435e;stroke-width:0.926042;stroke-miterlimit:4;stroke-dasharray:none;stroke-opacity:1"
           id="path934" />
        <path
           d="m 108.63169,115.73226 q 0.84393,-0.068 1.42268,0.15718 0.59563,0.22382 0.96176,0.55107 0.36614,0.32726 0.53844,0.56819 l 0.10127,-0.008 -0.10743,-1.3334 1.92416,-0.15504 0.72078,8.94566 -1.92416,0.15503 -0.10744,-1.33341 -0.10127,0.008 q -0.13151,0.26542 -0.44052,0.64707 -0.30902,0.38165 -0.86113,0.69795 -0.53523,0.31493 -1.37916,0.38293 -1.01272,0.0816 -1.80354,-0.24541 -0.77529,-0.34525 -1.33469,-0.96271 -0.56076,-0.63435 -0.88057,-1.441 -0.30294,-0.80801 -0.3723,-1.66882 -0.0694,-0.86081 0.1003,-1.7069 0.18655,-0.84745 0.63987,-1.54652 0.45196,-0.71594 1.16333,-1.16399 0.7269,-0.46628 1.73962,-0.54788 z m 0.55116,1.56947 q -0.82705,0.0666 -1.34733,0.56724 -0.52163,0.48372 -0.75281,1.19886 -0.2143,0.71379 -0.1531,1.47332 0.0612,0.75954 0.38701,1.4298 0.3427,0.66891 0.93641,1.07975 0.59235,0.39396 1.4194,0.32733 0.82706,-0.0666 1.33181,-0.549 0.52028,-0.5006 0.73458,-1.21439 0.23117,-0.71514 0.16998,-1.47468 -0.0612,-0.75953 -0.4039,-1.42844 -0.32581,-0.67026 -0.91816,-1.06422 -0.57684,-0.41221 -1.40389,-0.34557 z"
           style="font-size:16.9333px;fill:#12a2e0;fill-opacity:1;stroke:#08435e;stroke-width:0.926042;stroke-miterlimit:4;stroke-dasharray:none;stroke-opacity:1"
           id="path936" />
        <path
           d="m 117.72405,123.78979 -2.34388,-8.66317 1.8634,-0.50415 0.34053,1.25861 0.0981,-0.0265 q 0.0525,-0.25979 0.24193,-0.66189 0.18501,-0.41843 0.60462,-0.81264 0.43595,-0.39862 1.2042,-0.60647 0.96439,-0.26093 1.73762,0.004 0.77323,0.26443 1.29915,0.91154 0.54226,0.64268 0.78107,1.52534 l 1.51247,5.5902 -1.8634,0.50416 -1.4594,-5.39406 q -0.21227,-0.78458 -0.79954,-1.20458 -0.57093,-0.42443 -1.4209,-0.19446 -0.67017,0.18132 -1.00229,0.63956 -0.32019,0.43747 -0.3704,1.02994 -0.0546,0.57613 0.109,1.18092 l 1.33115,4.92003 z"
           style="font-size:16.9333px;fill:#12a2e0;fill-opacity:1;stroke:#08435e;stroke-width:0.926042;stroke-miterlimit:4;stroke-dasharray:none;stroke-opacity:1"
           id="path938" />
        <path
           d="m 131.96959,119.08934 q -0.91504,0.44152 -1.77058,0.4219 -0.84764,-0.0422 -1.59216,-0.41625 -0.75187,-0.38926 -1.34121,-1.02617 -0.57409,-0.64426 -0.94939,-1.42205 -0.3753,-0.77779 -0.52237,-1.6281 -0.13181,-0.85767 0.0387,-1.67321 0.16317,-0.83079 0.66495,-1.50534 0.50967,-0.69717 1.42472,-1.13869 0.76253,-0.36794 1.38355,-0.36677 0.63626,-0.006 1.09581,0.16691 0.45955,0.17309 0.70719,0.33562 l 0.0915,-0.0442 -2.27386,-4.71248 1.73859,-0.8389 5.59266,11.59056 -1.73858,0.8389 -0.58134,-1.20481 -0.0915,0.0442 q -0.0269,0.29499 -0.17735,0.76243 -0.15048,0.46745 -0.55127,0.96166 -0.38553,0.48685 -1.14807,0.85479 z m -0.31781,-1.63279 q 0.74728,-0.36058 1.04398,-0.99258 0.30459,-0.65461 0.24689,-1.39763 -0.0424,-0.75038 -0.37359,-1.43667 -0.33115,-0.68628 -0.89212,-1.18646 -0.54572,-0.50754 -1.24033,-0.66122 -0.68671,-0.17629 -1.43399,0.18429 -0.74729,0.36058 -1.05188,1.01519 -0.31194,0.63936 -0.2695,1.38974 0.0577,0.74302 0.38885,1.4293 0.33114,0.68628 0.87686,1.19382 0.56098,0.50019 1.26294,0.66912 0.6946,0.15368 1.44189,-0.2069 z"
           style="font-size:16.9333px;fill:#12a2e0;fill-opacity:1;stroke:#08435e;stroke-width:0.926042;stroke-miterlimit:4;stroke-dasharray:none;stroke-opacity:1"
           id="path940" />
      </g>
      <g
         id="g1084"
         style="fill:#12a2e0;fill-opacity:1;stroke:#08435e;stroke-width:0.926042;stroke-miterlimit:4;stroke-dasharray:none;stroke-opacity:1">
        <g
           aria-label="Game Designers"
           id="text1025"
           style="font-size:16.9333px;line-height:1.25;font-family:'Be Vietnam Pro';-inkscape-font-specification:'Be Vietnam Pro';letter-spacing:0.264583px;word-spacing:0px;fill:#12a2e0;fill-opacity:1;stroke:#08435e;stroke-width:0.926042;stroke-miterlimit:4;stroke-dasharray:none;stroke-opacity:1"
           transform="rotate(3.01574,103.028,119.51262)">
          <path
             d="m 44.655788,47.767642 q -0.988254,1.204282 -2.137583,1.750662 -1.138587,0.53329 -2.328833,0.542278 -1.203336,-0.0018 -2.316688,-0.43348 -1.126443,-0.442468 -2.055834,-1.205142 -0.92939,-0.762675 -1.58319,-1.781104 -0.653799,-1.018429 -0.877274,-2.187541 -0.225824,-1.192945 0.08574,-2.426806 0.309221,-1.257693 1.297475,-2.461974 0.773416,-0.942481 1.556872,-1.416718 0.783457,-0.474236 1.539034,-0.620872 0.742486,-0.157377 1.386946,-0.08853 0.644461,0.06885 1.142232,0.236375 0.497771,0.167525 0.776359,0.308519 0.278587,0.140994 0.278587,0.140994 l -1.256801,1.531531 q 0,0 -0.239318,-0.108768 -0.239317,-0.108769 -0.64311,-0.177268 -0.406141,-0.09233 -0.930443,-0.04067 -0.524302,0.05166 -1.094271,0.372513 -0.572316,0.297022 -1.130894,0.977702 -0.665998,0.811581 -0.856706,1.684617 -0.193057,0.849204 -0.01555,1.673928 0.188253,0.811634 0.668536,1.534337 0.480282,0.722703 1.147872,1.270539 0.680681,0.558579 1.49631,0.899323 0.813281,0.316913 1.659138,0.353888 0.843509,0.01314 1.627965,-0.328843 0.795197,-0.355078 1.450452,-1.153568 1.02048,-1.243551 0.915165,-2.556654 -0.105314,-1.313103 -1.245144,-2.379897 l -2.266539,2.761992 -1.230461,-1.009737 3.480373,-4.241164 0.69377,0.56932 q 1.492262,1.224576 2.027549,2.627662 0.54603,1.389996 0.250898,2.790681 -0.284389,1.387594 -1.272643,2.591875 z"
             style="font-size:16.9333px;fill:#12a2e0;fill-opacity:1;stroke:#08435e;stroke-width:0.926042;stroke-miterlimit:4;stroke-dasharray:none;stroke-opacity:1"
             id="path1042" />
          <path
             d="m 47.054807,32.408232 q 0.660504,-0.529693 1.265939,-0.66793 0.618645,-0.14883 1.105318,-0.0833 0.486674,0.06554 0.764472,0.168341 l 0.07926,-0.06356 -0.836916,-1.043597 1.50595,-1.207701 5.614753,7.001348 -1.50595,1.207701 -0.836916,-1.043597 -0.07926,0.06356 q 0.04002,0.293497 -0.0017,0.782786 -0.04173,0.489289 -0.321372,1.060843 -0.266431,0.560959 -0.926935,1.090652 -0.792606,0.635633 -1.630719,0.808525 -0.835497,0.149088 -1.644961,-0.04829 -0.820057,-0.210588 -1.537309,-0.698974 -0.704041,-0.49898 -1.244328,-1.172695 -0.540288,-0.673715 -0.874446,-1.469323 -0.320948,-0.806203 -0.337807,-1.639213 -0.02745,-0.846219 0.310133,-1.616182 0.340201,-0.793766 1.132807,-1.429399 z m 1.33667,0.990112 q -0.647295,0.5191 -0.797193,1.22537 -0.160492,0.69306 0.04928,1.41477 0.222987,0.711116 0.699711,1.30557 0.476725,0.594454 1.122435,0.966566 0.65892,0.361517 1.380888,0.368592 0.711374,-0.0061 1.358668,-0.525235 0.647294,-0.5191 0.794577,-1.201566 0.149898,-0.70627 -0.07309,-1.417386 -0.209777,-0.72171 -0.686502,-1.316164 -0.476724,-0.594454 -1.135644,-0.955972 -0.645711,-0.372112 -1.357084,-0.365976 -0.708758,-0.01767 -1.356052,0.501431 z"
             style="font-size:16.9333px;fill:#12a2e0;fill-opacity:1;stroke:#08435e;stroke-width:0.926042;stroke-miterlimit:4;stroke-dasharray:none;stroke-opacity:1"
             id="path1044" />
          <path
             d="m 58.599129,34.989992 -4.191462,-7.93574 1.706933,-0.90156 0.593131,1.122982 0.05989,-0.03163 q 0.0082,-0.310746 0.104598,-0.744651 0.111347,-0.441813 0.434849,-0.880781 0.315593,-0.45394 0.97441,-0.801911 0.883412,-0.466596 1.688799,-0.355778 0.805386,0.110818 1.453662,0.649321 l 0.02995,-0.01582 q -0.0019,-0.765001 0.351861,-1.545503 0.353763,-0.780503 1.341987,-1.302459 0.838494,-0.442871 1.635972,-0.347026 0.789569,0.08087 1.429937,0.604401 0.647432,0.500648 1.090304,1.339141 l 2.704679,5.120799 -1.706933,0.901559 -2.578144,-4.881228 q -0.411238,-0.778601 -1.046543,-1.075003 -0.635306,-0.296402 -1.368987,0.09111 -0.598924,0.316337 -0.799266,0.843455 -0.185369,0.51921 -0.0891,1.100315 0.08836,0.566132 0.349343,1.060244 l 2.388342,4.521874 -1.706932,0.90156 -2.578145,-4.881229 q -0.411238,-0.7786 -1.046543,-1.075002 -0.635305,-0.296402 -1.368987,0.09111 -0.598924,0.316337 -0.799266,0.843455 -0.185369,0.51921 -0.0891,1.100315 0.08836,0.566132 0.349343,1.060244 l 2.388343,4.521874 z"
             style="font-size:16.9333px;fill:#12a2e0;fill-opacity:1;stroke:#08435e;stroke-width:0.926042;stroke-miterlimit:4;stroke-dasharray:none;stroke-opacity:1"
             id="path1046" />
          <path
             d="m 76.436488,27.016848 q -1.07566,0.360714 -1.986165,0.255263 -0.899834,-0.126889 -1.62355,-0.580739 -0.713046,-0.475287 -1.233726,-1.175824 -0.504625,-0.70592 -0.779199,-1.524707 -0.269189,-0.802732 -0.292176,-1.670166 -0.02299,-0.867434 0.259356,-1.676517 0.282342,-0.809083 0.929137,-1.436762 0.641412,-0.643734 1.684963,-0.99368 1.123825,-0.376866 2.147002,-0.148459 1.033848,0.206969 1.849283,1.040843 0.826105,0.812435 1.31603,2.273407 l 0.166898,0.497694 -6.036544,2.024307 q 0.39263,0.957798 1.223539,1.465001 0.830908,0.507204 1.87446,0.157257 0.594021,-0.1992 0.914727,-0.521067 0.315322,-0.337921 0.437892,-0.664785 0.122569,-0.326863 0.138237,-0.546438 0.03172,-0.224958 0.03172,-0.224958 l 1.701792,-0.570683 q 0,0 0.01663,0.315903 0.01125,0.299848 -0.07353,0.792641 -0.06873,0.48741 -0.330119,1.039426 -0.261387,0.552015 -0.822719,1.061734 -0.566716,0.493665 -1.51394,0.811309 z m -4.01334,-4.405095 4.254479,-1.426706 q -0.441084,-1.102289 -1.228825,-1.427508 -0.771687,-0.330603 -1.574419,-0.06141 -0.89906,0.301493 -1.293881,1.094715 -0.400205,0.777167 -0.157354,1.820912 z"
             style="font-size:16.9333px;fill:#12a2e0;fill-opacity:1;stroke:#08435e;stroke-width:0.926042;stroke-miterlimit:4;stroke-dasharray:none;stroke-opacity:1"
             id="path1048" />
          <path
             d="m 86.620963,24.001977 -1.811901,-12.398951 4.239101,-0.619475 q 1.491225,-0.217917 2.692185,0.154203 1.198512,0.355365 2.065518,1.135663 0.883762,0.77785 1.413981,1.829835 0.546975,1.049537 0.715923,2.205655 0.168947,1.156119 -0.05482,2.318287 -0.207015,1.15972 -0.831234,2.157936 -0.607464,0.995768 -1.651719,1.695989 -1.046704,0.683466 -2.537929,0.901384 z m 2.593172,-11.297138 -2.19495,0.320755 1.309956,8.964107 2.194949,-0.320755 q 1.038831,-0.151808 1.75571,-0.633058 0.714429,-0.498004 1.124046,-1.208162 0.407168,-0.726914 0.543418,-1.551143 0.150557,-0.843432 0.02813,-1.681199 -0.122426,-0.837767 -0.50804,-1.602848 -0.368859,-0.767528 -0.964563,-1.330776 -0.595703,-0.563247 -1.422765,-0.835988 -0.827061,-0.272741 -1.865891,-0.120933 z"
             style="font-size:16.9333px;fill:#12a2e0;fill-opacity:1;stroke:#08435e;stroke-width:0.926042;stroke-miterlimit:4;stroke-dasharray:none;stroke-opacity:1"
             id="path1050" />
          <path
             d="m 103.30015,22.502403 q -1.13433,0.02175 -1.97137,-0.351731 -0.82045,-0.390739 -1.374874,-1.040627 -0.537823,-0.667142 -0.824616,-1.491526 -0.269862,-0.824709 -0.286421,-1.688149 -0.01623,-0.846509 0.221809,-1.680958 0.238043,-0.83445 0.749891,-1.521723 0.511851,-0.687272 1.317031,-1.092252 0.80486,-0.421909 1.90532,-0.443014 1.18511,-0.02273 2.0928,0.50183 0.9243,0.507303 1.45233,1.547234 0.54464,1.022676 0.57419,2.563323 l 0.0101,0.524836 -6.36575,0.122082 q 0.0875,1.031442 0.72822,1.764357 0.64071,0.732915 1.74117,0.71181 0.62642,-0.01201 1.02885,-0.222968 0.4021,-0.227885 0.617,-0.502988 0.21489,-0.275104 0.29565,-0.47989 0.0977,-0.20511 0.0977,-0.20511 l 1.7946,-0.03442 q 0,0 -0.0788,0.306367 -0.0791,0.289436 -0.30772,0.734167 -0.21165,0.444405 -0.62646,0.892707 -0.41481,0.448302 -1.10311,0.766358 -0.68861,0.301125 -1.68749,0.320282 z m -2.50864,-5.405415 4.4865,-0.08604 q -0.0904,-1.183814 -0.74451,-1.730172 -0.63713,-0.546683 -1.48364,-0.530449 -0.94809,0.01818 -1.5625,0.656613 -0.61472,0.6215 -0.69585,1.69005 z"
             style="font-size:16.9333px;fill:#12a2e0;fill-opacity:1;stroke:#08435e;stroke-width:0.926042;stroke-miterlimit:4;stroke-dasharray:none;stroke-opacity:1"
             id="path1052" />
          <path
             d="m 113.01882,22.850033 q -1.0628,-0.09232 -1.72954,-0.439194 -0.64841,-0.362275 -1.01665,-0.81919 -0.36678,-0.473785 -0.53111,-0.929985 -0.14747,-0.454734 -0.17316,-0.745916 -0.0242,-0.308053 -0.0242,-0.308053 l 1.87254,0.162667 q 0,0 0.0316,0.223703 0.0499,0.208299 0.21201,0.494336 0.16212,0.286036 0.53108,0.539049 0.37042,0.236143 1.01147,0.29183 0.77601,0.06741 1.17792,-0.254613 0.41878,-0.32056 0.45834,-0.776043 0.0381,-0.438614 -0.26044,-0.719505 -0.29854,-0.28089 -0.87726,-0.467139 l -1.19118,-0.37543 q -0.69387,-0.230247 -1.29314,-0.571255 -0.58093,-0.356413 -0.92644,-0.879342 -0.32717,-0.538333 -0.25829,-1.331212 0.10111,-1.164014 1.04429,-1.84695 0.94317,-0.682935 2.42771,-0.553974 0.96158,0.08353 1.56231,0.40767 0.6176,0.325604 0.95357,0.762718 0.33743,0.420245 0.48782,0.84124 0.15187,0.404124 0.17903,0.678437 0.0455,0.258909 0.0455,0.258909 l -1.80506,-0.156805 q 0,0 -0.036,-0.173094 -0.0359,-0.173094 -0.1856,-0.407056 -0.14818,-0.250831 -0.47092,-0.448838 -0.3044,-0.213412 -0.86111,-0.261772 -0.75914,-0.06595 -1.12584,0.24214 -0.3667,0.308086 -0.40041,0.696091 -0.0352,0.404874 0.26484,0.668895 0.31834,0.248616 0.84792,0.4136 l 1.1743,0.373964 q 1.17431,0.373964 1.8961,1.065557 0.72325,0.674723 0.62213,1.838737 -0.0674,0.776009 -0.52797,1.381889 -0.44223,0.590476 -1.23507,0.912535 -0.79138,0.305189 -1.87105,0.211399 z"
             style="font-size:16.9333px;fill:#12a2e0;fill-opacity:1;stroke:#08435e;stroke-width:0.926042;stroke-miterlimit:4;stroke-dasharray:none;stroke-opacity:1"
             id="path1054" />
          <path
             d="m 121.47262,13.157046 q -0.51795,-0.08538 -0.79426,-0.491332 -0.27632,-0.40595 -0.1992,-0.873768 0.0799,-0.484526 0.46912,-0.763596 0.39199,-0.295778 0.90994,-0.210396 0.51794,0.08538 0.79425,0.491333 0.29578,0.391996 0.21591,0.876522 -0.0799,0.484526 -0.48858,0.77755 -0.38924,0.27907 -0.90718,0.193687 z m -2.64605,10.221304 1.45977,-8.855134 1.90469,0.313989 -1.45977,8.855133 z"
             style="font-size:16.9333px;fill:#12a2e0;fill-opacity:1;stroke:#08435e;stroke-width:0.926042;stroke-miterlimit:4;stroke-dasharray:none;stroke-opacity:1"
             id="path1056" />
          <path
             d="m 126.8211,28.677502 q -1.13072,-0.294315 -1.79137,-0.78123 -0.66065,-0.486915 -0.98794,-1.044538 -0.33156,-0.541236 -0.42943,-1.039143 -0.10213,-0.48152 -0.0909,-0.793553 0.0112,-0.312032 0.0112,-0.312032 l 1.85176,0.481993 q 0,0 0.0144,0.213709 0.0101,0.230097 0.15489,0.547744 0.15691,0.338299 0.54818,0.650113 0.38701,0.328201 1.10805,0.51588 0.85213,0.221803 1.44971,0.0099 0.60971,-0.191251 0.96776,-0.692968 0.37019,-0.481064 0.53654,-1.120168 l 0.25592,-0.983236 -0.0819,-0.02133 q -0.25278,0.231664 -0.68648,0.486222 -0.41306,0.242437 -1.03421,0.343222 -0.62114,0.100784 -1.40773,-0.103957 -0.98324,-0.255925 -1.62256,-0.824777 -0.62294,-0.564586 -0.95247,-1.315266 -0.30888,-0.762801 -0.34995,-1.613371 -0.0411,-0.850571 0.17221,-1.669935 0.21327,-0.819363 0.65955,-1.525584 0.45055,-0.722608 1.08787,-1.221627 0.65797,-0.51114 1.47711,-0.700369 0.83554,-0.184963 1.81877,0.07096 0.78659,0.204741 1.27978,0.595575 0.49745,0.374446 0.75201,0.808153 0.25882,0.41732 0.34592,0.754945 l 0.0819,0.02133 0.33271,-1.278207 1.86815,0.486259 -2.12419,8.160862 q -0.30284,1.163497 -1.01267,1.941099 -0.70983,0.777603 -1.77614,1.042479 -1.0663,0.264876 -2.42644,-0.08915 z m 1.21543,-5.072873 q 0.80297,0.209006 1.45039,-0.05992 0.65168,-0.28531 1.08449,-0.872554 0.43282,-0.587244 0.6205,-1.308284 0.18768,-0.72104 0.0961,-1.444778 -0.0916,-0.723738 -0.52573,-1.274179 -0.43414,-0.550441 -1.23712,-0.759447 -0.81936,-0.213271 -1.46678,0.05565 -0.64741,0.268923 -1.08023,0.856167 -0.43281,0.587244 -0.62049,1.308284 -0.18768,0.72104 -0.0961,1.444778 0.0916,0.723738 0.52146,1.290566 0.43414,0.550441 1.25351,0.763713 z"
             style="font-size:16.9333px;fill:#12a2e0;fill-opacity:1;stroke:#08435e;stroke-width:0.926042;stroke-miterlimit:4;stroke-dasharray:none;stroke-opacity:1"
             id="path1058" />
          <path
             d="m 134.27528,27.115826 3.32584,-8.335657 1.79295,0.715368 -0.48319,1.211029 0.0944,0.03765 q 0.19794,-0.176261 0.59082,-0.384136 0.39914,-0.223603 0.97138,-0.286991 0.58796,-0.05711 1.32716,0.237819 0.92793,0.370234 1.3876,1.045887 0.45968,0.675653 0.49185,1.5089 0.0479,0.839523 -0.29096,1.688816 l -2.1461,5.378858 -1.79295,-0.715368 2.0708,-5.190125 q 0.30121,-0.754928 0.0836,-1.44337 -0.20184,-0.682166 -1.01968,-1.008474 -0.64483,-0.257281 -1.18553,-0.09015 -0.51869,0.157675 -0.9145,0.601385 -0.38954,0.427983 -0.62172,1.009907 l -1.88882,4.734023 z"
             style="font-size:16.9333px;fill:#12a2e0;fill-opacity:1;stroke:#08435e;stroke-width:0.926042;stroke-miterlimit:4;stroke-dasharray:none;stroke-opacity:1"
             id="path1060" />
          <path
             d="m 147.17781,33.184006 q -0.98929,-0.555401 -1.52214,-1.301197 -0.50979,-0.752271 -0.659,-1.593392 -0.12614,-0.847596 0.0438,-1.703738 0.18471,-0.847852 0.60747,-1.600892 0.41448,-0.738274 1.04215,-1.337439 0.62768,-0.599166 1.41699,-0.932808 0.78931,-0.333643 1.68872,-0.275349 0.90769,0.04353 1.86745,0.582351 1.03358,0.58027 1.55088,1.492113 0.54036,0.905367 0.46937,2.069515 -0.0479,1.157671 -0.80228,2.50133 l -0.25698,0.45773 -5.55182,-3.116881 q -0.4466,0.933853 -0.26502,1.890249 0.18158,0.956396 1.14134,1.495218 0.54632,0.306715 1.00017,0.328479 0.46213,0.007 0.78672,-0.121485 0.32458,-0.128483 0.49788,-0.264221 0.18807,-0.127449 0.18807,-0.127449 l 1.56514,0.878696 q 0,0 -0.22304,0.22433 -0.21475,0.209566 -0.63699,0.477414 -0.40748,0.276138 -0.99215,0.452802 -0.58467,0.176663 -1.33926,0.102569 -0.74631,-0.08886 -1.61747,-0.577945 z m 0.57254,-5.931606 3.91285,2.196738 q 0.52121,-1.066742 0.23368,-1.869007 -0.27277,-0.793975 -1.01104,-1.208454 -0.82687,-0.464217 -1.67991,-0.224608 -0.84474,0.224843 -1.45558,1.105331 z"
             style="font-size:16.9333px;fill:#12a2e0;fill-opacity:1;stroke:#08435e;stroke-width:0.926042;stroke-miterlimit:4;stroke-dasharray:none;stroke-opacity:1"
             id="path1062" />
          <path
             d="m 152.62239,36.332493 5.33716,-7.215196 1.55195,1.147993 -0.70491,0.95295 0.0545,0.04028 q 0.51638,-0.27097 1.1937,-0.275452 0.701,-0.008 1.54504,0.616321 0.25866,0.191332 0.41549,0.349471 0.17045,0.168209 0.17045,0.168209 l -1.10771,1.497493 q 0,0 -0.18406,-0.178279 -0.18407,-0.178278 -0.44272,-0.369611 -0.95295,-0.704907 -1.85946,-0.532958 -0.88282,0.168405 -1.76899,1.3664 l -2.64844,3.580371 z"
             style="font-size:16.9333px;fill:#12a2e0;fill-opacity:1;stroke:#08435e;stroke-width:0.926042;stroke-miterlimit:4;stroke-dasharray:none;stroke-opacity:1"
             id="path1065" />
          <path
             d="m 160.66445,43.143668 q -0.76999,-0.738354 -1.07186,-1.426646 -0.27793,-0.688794 -0.27826,-1.275625 0.0114,-0.599053 0.16943,-1.057467 0.17028,-0.446695 0.33285,-0.689631 0.17429,-0.255158 0.17429,-0.255158 l 1.35666,1.300908 q 0,0 -0.11569,0.194048 -0.0917,0.193545 -0.14483,0.518018 -0.0531,0.324473 0.0757,0.752919 0.14047,0.416223 0.60491,0.861579 0.56222,0.539115 1.07722,0.540288 0.52723,0.01289 0.84367,-0.317105 0.30471,-0.317776 0.24829,-0.723786 -0.0564,-0.40601 -0.39044,-0.913984 L 162.8539,39.61264 q -0.39613,-0.614457 -0.64911,-1.25587 -0.22904,-0.641915 -0.17027,-1.265914 0.0827,-0.624502 0.63354,-1.198943 0.80867,-0.843327 1.97162,-0.783889 1.16295,0.05944 2.23849,1.090789 0.69667,0.668034 0.96137,1.297224 0.27692,0.640911 0.26453,1.19208 -6.7e-4,0.538947 -0.1475,0.961197 -0.13512,0.410028 -0.28597,0.640742 -0.12691,0.230212 -0.12691,0.230212 l -1.30777,-1.254029 q 0,0 0.0805,-0.157381 0.0805,-0.157381 0.11067,-0.433468 0.0419,-0.288309 -0.0854,-0.644928 -0.10331,-0.357122 -0.50664,-0.743879 -0.54999,-0.527395 -1.02883,-0.51735 -0.47884,0.01004 -0.7484,0.291154 -0.28128,0.293332 -0.21314,0.687119 0.0921,0.393286 0.40116,0.853878 l 0.68025,1.027667 q 0.68025,1.027666 0.80884,2.019001 0.1403,0.979112 -0.66837,1.82244 -0.53912,0.562218 -1.27781,0.745382 -0.71474,0.182662 -1.5343,-0.06363 -0.80783,-0.258508 -1.59005,-1.008581 z"
             style="font-size:16.9333px;fill:#12a2e0;fill-opacity:1;stroke:#08435e;stroke-width:0.926042;stroke-miterlimit:4;stroke-dasharray:none;stroke-opacity:1"
             id="path1067" />
        </g>
      </g>
    </g>
    <text
       xml:space="preserve"
       style="font-size:10.5833px;line-height:1.25;font-family:'Be Vietnam Pro';-inkscape-font-specification:'Be Vietnam Pro';word-spacing:0px;stroke-width:0.264583"
       x="197.80269"
       y="13.341531"
       id="text1029"><tspan
         id="tspan1027"
         x="197.80269"
         y="13.341531"
         style="stroke-width:0.264583"></tspan></text>
  </g>
</svg>
