<?xml version="1.0" encoding="UTF-8" standalone="no"?>
<svg
   xmlns:dc="http://purl.org/dc/elements/1.1/"
   xmlns:cc="http://creativecommons.org/ns#"
   xmlns:rdf="http://www.w3.org/1999/02/22-rdf-syntax-ns#"
   xmlns:svg="http://www.w3.org/2000/svg"
   xmlns="http://www.w3.org/2000/svg"
   width="145.20053mm"
   height="84.786423mm"
   viewBox="0 0 145.20053 84.786423"
   version="1.1"
   id="svg8">
  <defs
     id="defs2" />
  <metadata
     id="metadata5">
    <rdf:RDF>
      <cc:Work
         rdf:about="">
        <dc:format>image/svg+xml</dc:format>
        <dc:type
           rdf:resource="http://purl.org/dc/dcmitype/StillImage" />
        <dc:title></dc:title>
      </cc:Work>
    </rdf:RDF>
  </metadata>
  <g
     id="layer1"
     transform="translate(-32.21212,-88.399275)">
    <text
       xml:space="preserve"
       style="font-size:10.5833px;line-height:1.25;font-family:'Be Vietnam Pro';-inkscape-font-specification:'Be Vietnam Pro';word-spacing:0px;stroke-width:0.264583"
       x="33.633858"
       y="35.6847"
       id="text872"><tspan
         id="tspan870"
         x="33.633858"
         y="35.6847"
         style="stroke-width:0.264583" /></text>
    <text
       xml:space="preserve"
       style="font-size:10.5833px;line-height:1.25;font-family:'Be Vietnam Pro';-inkscape-font-specification:'Be Vietnam Pro';word-spacing:0px;stroke-width:0.264583"
       x="197.80269"
       y="13.341531"
       id="text1029"><tspan
         id="tspan1027"
         x="197.80269"
         y="13.341531"
         style="stroke-width:0.264583" /></text>
    <g
       id="g1190"
       transform="translate(7.4083333,256.7208)">
      <path
         id="path1162"
         style="fill:#08435e;fill-opacity:1;stroke:none;stroke-width:1.32292;stroke-linejoin:bevel;stroke-miterlimit:4;stroke-dasharray:none;stroke-opacity:1"
         d="m 63.679688,-168.32031 c -2.212215,-0.0154 -4.182518,0.12117 -5.378907,0.13281 -7.81966,0.0762 -14.091284,4.66673 -19.294922,13.67969 -9.390278,16.26445 -22.786113,60.015543 -6.707031,69.298826 11.830804,6.830533 29.301814,-8.610181 41.123047,-21.667966 l 0.04687,-0.0527 0.04492,-0.0527 c 7.996548,-9.22023 10.387962,-4.75194 23.890625,-4.75196 13.50486,2e-5 15.89339,-4.46681 23.88867,4.75196 l 0.0449,0.0527 0.0469,0.0527 c 11.82137,13.057948 29.29391,28.498656 41.125,21.667966 16.07922,-9.283364 2.68119,-53.034536 -6.70899,-69.298826 -5.20363,-9.01295 -11.47498,-13.60358 -19.29492,-13.67969 -1.19609,-0.0116 -3.16455,-0.14825 -5.37695,-0.13281 -4.71461,0.0329 -11.31484,0.92616 -17.08399,5.55664 -8.34029,1.45928 -9.37194,2.46478 -16.64062,2.46484 -7.268779,-6e-5 -8.300335,-1.00556 -16.640625,-2.46484 -5.769133,-4.63048 -12.36916,-5.52373 -17.083984,-5.55664 z" />
      <path
         id="path1164"
         style="fill:#12a2e0;fill-opacity:1;stroke:none;stroke-width:1.32292;stroke-linejoin:bevel;stroke-miterlimit:4;stroke-dasharray:none;stroke-opacity:1"
         d="m 63.632326,-161.70559 c -2.055148,-0.0143 -3.885626,0.1204 -5.266862,0.13384 -4.712787,0.0459 -9.228669,2.74694 -13.630693,10.37146 -8.804045,15.24907 -19.506095,54.270817 -9.129159,60.261957 6.903175,3.985559 21.391358,-7.652051 32.912721,-20.378597 10.563183,-12.17963 18.737331,-7.03315 28.885573,-7.03316 10.148244,10e-6 18.322384,-5.14647 28.885574,7.03316 11.52136,12.726546 26.00954,24.364156 32.91272,20.378597 10.37694,-5.99114 -0.32512,-45.012887 -9.12916,-60.261957 -4.40202,-7.62452 -8.91791,-10.32559 -13.63069,-10.37146 -1.38124,-0.0134 -3.21171,-0.14818 -5.26686,-0.13384 -4.52132,0.0316 -10.13064,0.78546 -14.43995,5.14542 -10.13174,1.58638 -10.60236,2.87728 -19.331634,2.87735 -8.729273,-7e-5 -9.199896,-1.29097 -19.331635,-2.87735 -4.309309,-4.35996 -9.918621,-5.11386 -14.439945,-5.14542 z" />
      <path
         id="path1166"
         style="fill:#ffffff;fill-opacity:1;stroke:none;stroke-width:3.81161;stroke-linejoin:bevel"
         d="m 60.519855,-153.95412 c -1.136997,0 -2.05259,0.91507 -2.05259,2.05207 v 6.05493 h -6.05441 c -1.136994,0 -2.052587,0.91507 -2.052587,2.05207 v 2.50992 c 0,1.137 0.915593,2.05259 2.052587,2.05259 h 6.05441 v 6.05441 c 0,1.13699 0.915593,2.05207 2.05259,2.05207 h 2.509922 c 1.136997,0 2.052071,-0.91508 2.052071,-2.05207 v -6.05441 h 6.054413 c 1.136994,0 2.052587,-0.91559 2.052587,-2.05259 v -2.50992 c 0,-1.137 -0.915593,-2.05207 -2.052587,-2.05207 h -6.054413 v -6.05493 c 0,-1.137 -0.915074,-2.05207 -2.052071,-2.05207 z" />
      <g
         id="g1180"
         style="fill:#ffffff;fill-opacity:1;stroke:none"
         transform="translate(-1.1523497,-178.47614)">
        <g
           id="g1172"
           transform="translate(-0.05976868,0.11951828)"
           style="fill:#ffffff;fill-opacity:1;stroke:none">
          <circle
             style="fill:#ffffff;fill-opacity:1;stroke:none;stroke-width:3.96875;stroke-linejoin:bevel"
             id="circle1168"
             cx="128.12483"
             cy="35.936096"
             r="3.9441416" />
          <circle
             style="fill:#ffffff;fill-opacity:1;stroke:none;stroke-width:3.96875;stroke-linejoin:bevel"
             id="circle1170"
             cx="144.97707"
             cy="35.936096"
             r="3.9441416" />
        </g>
        <g
           id="g1178"
           style="fill:#ffffff;fill-opacity:1;stroke:none">
          <circle
             style="fill:#ffffff;fill-opacity:1;stroke:none;stroke-width:3.96875;stroke-linejoin:bevel"
             id="circle1174"
             cx="136.49118"
             cy="44.661015"
             r="3.9441416" />
          <circle
             style="fill:#ffffff;fill-opacity:1;stroke:none;stroke-width:3.96875;stroke-linejoin:bevel"
             id="circle1176"
             cx="136.49118"
             cy="27.450214"
             r="3.9441416" />
        </g>
      </g>
      <path
         style="color:#000000;font-style:normal;font-variant:normal;font-weight:normal;font-stretch:normal;font-size:medium;line-height:normal;font-family:sans-serif;font-variant-ligatures:normal;font-variant-position:normal;font-variant-caps:normal;font-variant-numeric:normal;font-variant-alternates:normal;font-variant-east-asian:normal;font-feature-settings:normal;font-variation-settings:normal;text-indent:0;text-align:start;text-decoration:none;text-decoration-line:none;text-decoration-style:solid;text-decoration-color:#000000;letter-spacing:normal;word-spacing:normal;text-transform:none;writing-mode:lr-tb;direction:ltr;text-orientation:mixed;dominant-baseline:auto;baseline-shift:baseline;text-anchor:start;white-space:normal;shape-padding:0;shape-margin:0;inline-size:0;clip-rule:nonzero;display:inline;overflow:visible;visibility:visible;isolation:auto;mix-blend-mode:normal;color-interpolation:sRGB;color-interpolation-filters:linearRGB;solid-color:#000000;solid-opacity:1;vector-effect:none;fill:#ffffff;fill-opacity:1;fill-rule:nonzero;stroke:none;stroke-width:0.529167;stroke-linecap:butt;stroke-linejoin:bevel;stroke-miterlimit:4;stroke-dasharray:none;stroke-dashoffset:0;stroke-opacity:1;color-rendering:auto;image-rendering:auto;shape-rendering:auto;text-rendering:auto;enable-background:accumulate;stop-color:#000000"
         d="m 128.1204,-119.55305 c 0,4.22456 -3.42469,7.64924 -7.64925,7.64924 -4.22456,0 -7.64924,-3.42468 -7.64924,-7.64925 0,-4.22456 3.42468,-7.64924 7.64924,-7.64924 4.22456,0 7.64925,3.42468 7.64925,7.64925 z"
         id="path1182" />
      <circle
         style="fill:#4eb9e7;fill-opacity:1;stroke:none;stroke-width:2.72852;stroke-linejoin:bevel"
         id="circle1184"
         cx="120.47115"
         cy="-119.55305"
         r="5.2588553" />
      <path
         style="color:#000000;font-style:normal;font-variant:normal;font-weight:normal;font-stretch:normal;font-size:medium;line-height:normal;font-family:sans-serif;font-variant-ligatures:normal;font-variant-position:normal;font-variant-caps:normal;font-variant-numeric:normal;font-variant-alternates:normal;font-variant-east-asian:normal;font-feature-settings:normal;font-variation-settings:normal;text-indent:0;text-align:start;text-decoration:none;text-decoration-line:none;text-decoration-style:solid;text-decoration-color:#000000;letter-spacing:normal;word-spacing:normal;text-transform:none;writing-mode:lr-tb;direction:ltr;text-orientation:mixed;dominant-baseline:auto;baseline-shift:baseline;text-anchor:start;white-space:normal;shape-padding:0;shape-margin:0;inline-size:0;clip-rule:nonzero;display:inline;overflow:visible;visibility:visible;isolation:auto;mix-blend-mode:normal;color-interpolation:sRGB;color-interpolation-filters:linearRGB;solid-color:#000000;solid-opacity:1;vector-effect:none;fill:#ffffff;fill-opacity:0.979839;fill-rule:nonzero;stroke:none;stroke-width:0.529167;stroke-linecap:butt;stroke-linejoin:bevel;stroke-miterlimit:4;stroke-dasharray:none;stroke-dashoffset:0;stroke-opacity:1;color-rendering:auto;image-rendering:auto;shape-rendering:auto;text-rendering:auto;enable-background:accumulate;stop-color:#000000"
         d="m 81.9859,-119.55305 c 0,4.22456 -3.42469,7.64924 -7.64925,7.64924 -4.22456,0 -7.64924,-3.42468 -7.64924,-7.64925 0,-4.22456 3.42468,-7.64924 7.64924,-7.64924 4.22456,0 7.64925,3.42468 7.64925,7.64925 z"
         id="path1186" />
      <circle
         style="fill:#12a2e0;fill-opacity:0.741936;stroke:none;stroke-width:2.72852;stroke-linejoin:bevel"
         id="circle1188"
         cx="74.336647"
         cy="-119.55305"
         r="5.2588553" />
    </g>
  </g>
</svg>
